<?xml version="1.0" encoding="iso-8859-1"?>
<!-- Generator: Adobe Illustrator 19.0.0, SVG Export Plug-In . SVG Version: 6.00 Build 0)  -->
<svg xmlns="http://www.w3.org/2000/svg" xmlns:xlink="http://www.w3.org/1999/xlink" version="1.1" id="Layer_1" x="0px" y="0px" viewBox="0 0 512 512" style="enable-background:new 0 0 512 512;" xml:space="preserve" width="512px" height="512px">
<g>
	<g>
		<polygon points="319.633,432.676 313.307,460.319 370.199,460.319 376.352,432.676   " fill="#4CAF50"/>
	</g>
</g>
<g>
	<g>
		<path d="M396.099,85.333h6.669c5.776,0,10.734-3.503,12.868-8.501c0.72-1.686,1.121-3.542,1.121-5.49    c0-4.312-1.954-7.997-5.021-10.563c-2.428-2.031-5.554-3.089-8.967-3.089h-12.093h-52.955l9.188,37.302    c17.379,70.568,17.456,144.984,0.228,215.592l-22.76,100.459h53.21c1.141,0,2.237,0.308,3.266,0.644l25.938-117.855    c0.018-0.079,0.036-0.127,0.054-0.206c12.943-52.985,12.887-111.311-0.154-164.264L396.099,85.333z" fill="#4CAF50"/>
	</g>
</g>
<g>
	<g>
		<polygon points="149.745,492.77 154.173,512 280.09,512 284.519,492.77   " fill="#4CAF50"/>
	</g>
</g>
<g>
	<g>
		<path d="M326.534,99.804c-0.001-0.004-0.001,0.012-0.002,0.008l-3.32-13.625c-0.946,0.28-1.943,0.349-2.981,0.349h-37.893v78.014    c3.606,1.62,6.356,5.529,6.356,9.83c0,5.794-4.636,10.709-10.431,10.709h-12.591c-5.795,0-10.277-4.914-10.277-10.709    c0-4.302,2.905-8.211,6.511-9.83V86.535h-88.939v78.014c3.606,1.62,6.483,5.529,6.483,9.83c0,5.794-4.508,10.709-10.304,10.709    h-12.591c-5.795,0-10.405-4.914-10.405-10.709c0-4.302,2.778-8.211,6.383-9.83V86.535H113.19c-0.751,0-1.483,0.014-2.191-0.136    l-3.27,13.382c-16.582,67.342-16.651,138.586-0.197,205.948c0.013,0.058,0.028-0.034,0.041,0.025L145,471.136h120.532h23.731    l37.426-165.382c0.013-0.059,0.028-0.042,0.041-0.1C343.184,238.29,343.116,167.132,326.534,99.804z" fill="#4CAF50"/>
	</g>
</g>
<g>
	<g>
		<path d="M327.31,15.933c0-0.207-0.023-0.994-0.031-1.199C326.955,6.869,320.494,0,312.547,0H121.715    c-7.948,0-14.412,6.596-14.731,14.465c-0.008,0.203-0.031,1.109-0.031,1.314c0,8.154,6.609,15.471,14.763,15.471h3.104    l-8.73,34.854h202.085l-8.73-34.854h3.103C320.701,31.249,327.31,24.087,327.31,15.933z" fill="#4CAF50"/>
	</g>
</g>
<g>
</g>
<g>
</g>
<g>
</g>
<g>
</g>
<g>
</g>
<g>
</g>
<g>
</g>
<g>
</g>
<g>
</g>
<g>
</g>
<g>
</g>
<g>
</g>
<g>
</g>
<g>
</g>
<g>
</g>
</svg>
